<svg width="61" height="20" viewBox="0 0 61 20" fill="none" xmlns="http://www.w3.org/2000/svg">
<path d="M50.6072 0C50.2351 0 49.7886 0 49.4165 0.0740741L47.2583 3.85185C48.2258 3.25926 49.4165 2.96296 50.6072 2.96296C54.4771 2.96296 57.6771 6.14815 57.6771 10C57.6771 13.8519 54.4771 17.037 50.6072 17.037C46.7374 17.037 43.6117 13.9259 43.5373 10.0741L41.3047 13.8519C42.7931 17.4815 46.4397 20 50.5328 20C56.0399 20 60.5795 15.4815 60.5795 10C60.6539 4.51852 56.1143 0 50.6072 0Z" fill="#BF3078"/>
<path d="M20.2393 10.4444L21.9509 7.48148L25.8208 14.0741L30.286 6.44444L34.7512 14.0741L42.4165 1.11111C42.7886 0.444444 43.5328 0 44.3514 0H46.5096L34.7512 20L30.286 12.3704L25.8208 20L20.2393 10.4444Z" fill="#802050"/>
<path d="M23.4423 0L11.684 20L0 0H2.15818C2.97681 0 3.72101 0.444444 4.09311 1.11111L11.684 14.1481L19.3492 1.11111C19.7213 0.444444 20.4655 0 21.2842 0H23.4423Z" fill="#26134D"/>
</svg>
